<svg viewBox="0 0 1024 683" fill="none" xmlns="http://www.w3.org/2000/svg">
    <g filter="url(#filter0_f_9_10)">
        <path d="M439.516 684.818C523.516 684.818 601.528 646.694 658.158 586.834C714.788 526.974 746.516 444.256 746.516 355.818C746.516 267.38 714.788 184.662 658.158 124.802C601.528 64.9419 523.516 26.8182 439.516 26.8182C355.516 26.8182 277.505 64.9419 220.875 124.802C164.245 184.662 132.516 267.38 132.516 355.818C132.516 444.256 164.245 526.974 220.875 586.834C277.505 646.694 355.516 684.818 439.516 684.818Z" fill="#8558d3" fill-opacity="0.2"/>
    </g>
    <path d="M720.5 329.5C720.5 450.919 623.419 548 502 548C380.581 548 283.5 450.919 283.5 329.5C283.5 208.081 380.581 111 502 111C623.419 111 720.5 208.081 720.5 329.5Z" fill="#673ab7" stroke="white" stroke-width="6"/>
    <path d="M502 545C382.16 545 286 449.84 286 330C286 210.16 382.16 114 502 114C621.84 114 718 210.16 718 330C718 449.84 621.84 545 502 545Z" fill="url(#paint0_linear_9_10)"/>
    <g filter="url(#filter1_d_9_10)">
        <path d="M502 431C511.397 431 519.869 434.693 526.12 441.139C532.371 447.585 536 456.321 536 466H468C468 456.321 471.629 447.585 477.88 441.139C484.131 434.693 492.603 431 502 431Z" fill="#311B92"/>
    </g>
    <path d="M482.001 432H522.001C522.001 426.667 524.668 412.031 502.001 412C479.334 411.969 482.001 426.667 482.001 432Z" fill="#EDE7F6"/>
    <mask id="mask0_9_10" style={{maskType:'alpha'}} maskUnits="userSpaceOnUse" x="385" y="196" width="234" height="236">
        <path d="M502 432C628.761 432 731 333.761 731 207C731 80.2386 628.761 -22 502 -22C375.239 -22 273 80.2386 273 207C273 333.761 375.239 432 502 432Z" fill="#EDE7F6"/>
    </mask>
    <g mask="url(#mask0_9_10)">
        <path d="M482 432H522C522 426.667 524.667 412.031 502 412C479.333 411.969 482 426.667 482 432Z" fill="#D1C4E9"/>
        <path d="M473 207C473 222.464 485.536 235 501 235C516.464 235 529 222.464 529 207C529 191.536 516.464 179 501 179C485.536 179 473 191.536 473 207Z" fill="#EDE7F6"/>
        <path d="M421.4 349.4C422.2 340.2 423 330.2 423 320C423 274.6 386.4 238 341 238C295.6 238 259 274.6 259 320C259 330.2 259.8 340.2 260.6 349.4C301.291 355.808 322.868 368.647 341 370C359.132 368.647 380.709 355.808 421.4 349.4Z" fill="#311B92"/>
        <path d="M682.6 349.4C681.8 340.2 681 330.2 681 320C681 274.6 717.6 238 763 238C808.4 238 845 274.6 845 320C845 330.2 844.2 340.2 843.4 349.4C802.709 355.808 781.132 368.647 763 370C744.868 368.647 723.291 355.808 682.6 349.4Z" fill="#311B92"/>
        <path d="M341 238C341 210.4 363.4 188 391 188C418.6 188 441 210.4 441 238C441 239.2 441 240.2 440.8 241.4C431.6 239 409.4 234.6 391 234.6C372.6 234.6 350.4 239 341.2 241.4C341 240.2 341 239.2 341 238Z" fill="#EDE7F6"/>
        <path d="M763 238C763 210.4 740.6 188 713 188C685.4 188 663 210.4 663 238C663 239.2 663 240.2 663.2 241.4C672.4 239 694.6 234.6 713 234.6C731.4 234.6 753.6 239 762.8 241.4C763 240.2 763 239.2 763 238Z" fill="#EDE7F6"/>
    </g>
    <!-- Learning Icons -->
    <g opacity="0.8" filter="url(#filter_icon_soft_glow)">
        <!-- Book Icon -->
        <g transform="translate(180 380) scale(1.5)">
            <path d="M2 3h6a4 4 0 0 1 4 4v14a3 3 0 0 0-3-3H2z" fill="#D1C4E9"/>
            <path d="M22 3h-6a4 4 0 0 0-4 4v14a3 3 0 0 1 3-3h7z" fill="#B39DDB"/>
        </g>
        <!-- Lightbulb Icon -->
        <g transform="translate(750 200) scale(1.6)">
            <path d="M12 2a7 7 0 0 0-7 7c0 2.05.84 3.9 2.2 5.24L6 17h12l-1.2-2.76A6.995 6.995 0 0 0 19 9a7 7 0 0 0-7-7z" fill="#B39DDB"/>
            <path d="M9.5 18a2.5 2.5 0 0 0 5 0h-5z" fill="#D1C4E9"/>
        </g>
        <!-- Gear Icon -->
        <g transform="translate(250 150) scale(1.4)">
            <path d="M12 2l1.09 3.44.91.28a2 2 0 0 1 1.41 1.41l.28.91L19.13 9l-2.07 2.07-.3.3.3.3L19.13 15l-3.44 1.09-.28.91a2 2 0 0 1-1.41 1.41l-.91.28L12 22l-1.09-3.44-.91-.28a2 2 0 0 1-1.41-1.41l-.28-.91L4.87 15l2.07-2.07.3-.3-.3-.3L4.87 9l3.44-1.09.28-.91a2 2 0 0 1 1.41-1.41l.91-.28L12 2z" fill="#D1C4E9"/>
            <circle cx="12" cy="12" r="3" fill="#B39DDB"/>
        </g>
        <!-- Brush Icon -->
        <g transform="translate(800 450) scale(1.5)">
            <path d="M12.5 4C14.43 4 16 5.57 16 7.5s-1.57 3.5-3.5 3.5-3.5-1.57-3.5-3.5S10.57 4 12.5 4zm-2.09 7.04c-.04.03-.09.06-.13.09a2.5 2.5 0 0 0 3.44 3.44c.03-.04.06-.09.09-.13L18.5 9.75l-4-4-4.26 4.29zM20.71 5.63l-2.34-2.34a.996.996 0 0 0-1.41 0l-1.83 1.83 4 4 1.83-1.83a.996.996 0 0 0 0-1.41z" fill="#B39DDB"/>
            <path d="M3 21h12v-2H3v2z" fill="#D1C4E9"/>
        </g>
    </g>
    <defs>
        <filter id="filter_icon_soft_glow" x="0" y="0" width="1024" height="683" filterUnits="userSpaceOnUse" color-interpolation-filters="sRGB">
            <feFlood flood-opacity="0" result="BackgroundImageFix"/>
            <feBlend mode="normal" in="SourceGraphic" in2="BackgroundImageFix" result="shape"/>
            <feGaussianBlur stdDeviation="3" result="effect1_foregroundBlur_9_10"/>
        </filter>
        <filter id="filter0_f_9_10" x="-17.4839" y="-203.182" width="1014" height="1118" filterUnits="userSpaceOnUse" color-interpolation-filters="sRGB">
            <feFlood flood-opacity="0" result="BackgroundImageFix"/>
            <feBlend mode="normal" in="SourceGraphic" in2="BackgroundImageFix" result="shape"/>
            <feGaussianBlur stdDeviation="125" result="effect1_foregroundBlur_9_10"/>
        </filter>
        <filter id="filter1_d_9_10" x="464" y="431" width="76" height="43" filterUnits="userSpaceOnUse" color-interpolation-filters="sRGB">
            <feFlood flood-opacity="0" result="BackgroundImageFix"/>
            <feColorMatrix in="SourceAlpha" type="matrix" values="0 0 0 0 0 0 0 0 0 0 0 0 0 0 0 0 0 0 127 0" result="hardAlpha"/>
            <feOffset dy="4"/>
            <feGaussianBlur stdDeviation="2"/>
            <feComposite in2="hardAlpha" operator="out"/>
            <feColorMatrix type="matrix" values="0 0 0 0 0 0 0 0 0 0 0 0 0 0 0 0 0 0 0.25 0"/>
            <feBlend mode="normal" in2="BackgroundImageFix" result="effect1_dropShadow_9_10"/>
            <feBlend mode="normal" in="SourceGraphic" in2="effect1_dropShadow_9_10" result="shape"/>
        </filter>
        <linearGradient id="paint0_linear_9_10" x1="502" y1="114" x2="502" y2="545" gradientUnits="userSpaceOnUse">
            <stop stop-color="#4527A0"/>
            <stop offset="1" stop-color="#311B92"/>
        </linearGradient>
    </defs>
</svg>
