<svg width="320" height="320" viewBox="0 0 320 320" fill="none" xmlns="http://www.w3.org/2000/svg">
<g clip-path="url(#clip0_105_2)">
<rect width="320" height="320" rx="160" fill="url(#paint0_linear_105_2)"/>
<g filter="url(#filter0_f_105_2)">
<path d="M229.497 201.275C242.827 151.045 223.363 92.535 173.133 79.205C122.903 65.875 64.3929 85.339 51.0629 135.569C37.7329 185.799 57.1969 244.309 107.427 257.639C157.657 270.969 216.167 251.505 229.497 201.275Z" fill="#14b8a6" fill-opacity="0.5"/>
</g>
<g filter="url(#filter1_f_105_2)">
<path d="M125.75 304.143C174.45 282.743 211.35 231.243 189.95 182.543C168.55 133.843 117.05 96.943 68.35 118.343C19.65 139.743 -17.25 191.243 4.15 239.943C25.55 288.643 77.05 325.543 125.75 304.143Z" fill="#0ea5e9" fill-opacity="0.5"/>
</g>
<g id="Mascot">
<path id="Body" d="M189.333 194.667C189.333 201.084 186.683 207.247 181.933 211.997C177.183 216.747 170.917 219.333 164.5 219.333H122.167C118.995 219.332 115.861 218.527 113.129 216.994C110.397 215.461 108.167 213.267 106.667 210.667L84.3333 173.333L101.167 103.333C101.559 101.761 102.327 100.323 103.393 99.1398C104.459 97.9566 105.789 97.0701 107.267 96.5667C113.833 94.4 117.5 87.8333 117.5 81.3333V80.6667C117.5 73.1 123.5 67 131 67H154.333C161.833 67 167.833 73.1 167.833 80.6667V81.3333C167.833 87.8333 171.5 94.4 178.067 96.5667C179.544 97.0701 180.874 97.9566 181.94 99.1398C183.006 100.323 183.774 101.761 184.167 103.333L201.167 173.333L178.667 210.667C177.168 213.267 174.938 215.461 172.206 216.994C169.473 218.527 166.34 219.332 163.167 219.333H140.833C147.25 219.333 153.583 216.747 158.333 211.997C163.083 207.247 165.667 201.084 165.667 194.667V132.333C165.667 129.161 166.942 126.118 169.217 123.843C171.492 121.568 174.535 120.292 177.667 120.292H183.5C185.084 120.292 186.601 120.929 187.733 122.062C188.866 123.194 189.503 124.711 189.503 126.292V194.667H189.333Z" fill="#A5B4FC"/>
<path id="Face" d="M158.5 120C158.5 128.833 151.667 135.667 142.833 135.667C134 135.667 127.167 128.833 127.167 120C127.167 111.167 134 104.333 142.833 104.333C151.667 104.333 158.5 111.167 158.5 120Z" fill="white"/>
<path id="Eyes" d="M150.167 116.333C151.948 116.333 153.417 114.865 153.417 113.083C153.417 111.302 151.948 109.833 150.167 109.833C148.385 109.833 146.917 111.302 146.917 113.083C146.917 114.865 148.385 116.333 150.167 116.333ZM135.5 116.333C137.282 116.333 138.75 114.865 138.75 113.083C138.75 111.302 137.282 109.833 135.5 109.833C133.718 109.833 132.25 111.302 132.25 113.083C132.25 114.865 133.718 116.333 135.5 116.333Z" fill="#4338CA"/>
<path id="Mouth" d="M145.333 126C145.333 126.96 144.593 127.7 143.667 127.7C142.74 127.7 142 126.96 142 126H140.333C140.333 127.881 141.852 129.4 143.667 129.4C145.481 129.4 147 127.881 147 126H145.333V126Z" fill="#4338CA"/>
</g>
</g>
<defs>
<filter id="filter0_f_105_2" x="-2.26715" y="45.875" width="265.1" height="245.1" filterUnits="userSpaceOnUse" color-interpolation-filters="sRGB">
<feFlood flood-opacity="0" result="BackgroundImageFix"/>
<feBlend mode="normal" in="SourceGraphic" in2="BackgroundImageFix" result="shape"/>
<feGaussianBlur stdDeviation="16.6667" result="effect1_foregroundBlur_105_2"/>
</filter>
<filter id="filter1_f_105_2" x="-15.0833" y="85.01" width="238.367" height="273.867" filterUnits="userSpaceOnUse" color-interpolation-filters="sRGB">
<feFlood flood-opacity="0" result="BackgroundImageFix"/>
<feBlend mode="normal" in="SourceGraphic" in2="BackgroundImageFix" result="shape"/>
<feGaussianBlur stdDeviation="16.6667" result="effect1_foregroundBlur_105_2"/>
</filter>
<linearGradient id="paint0_linear_105_2" x1="160" y1="0" x2="160" y2="320" gradientUnits="userSpaceOnUse">
<stop stop-color="#f0fdfa"/>
<stop offset="1" stop-color="#ccfbf1"/>
</linearGradient>
<clipPath id="clip0_105_2">
<rect width="320" height="320" rx="160" fill="white"/>
</clipPath>
</defs>
</svg>
