<svg viewBox="0 0 1024 1024" class="absolute inset-0 h-full w-full object-cover" xmlns="http://www.w3.org/2000/svg">
    <defs>
        <linearGradient id="illustration-gradient" x1="0" y1="0" x2="1" y2="1" gradientTransform="rotate(45 .5 .5)">
            <stop offset="0%" stop-color="#673AB7" />
            <stop offset="100%" stop-color="#4F46E5" />
        </linearGradient>
        <style>
            .icon-float {
                animation: float 6s ease-in-out infinite;
            }
            @keyframes float {
                0% { transform: translateY(0px); }
                50% { transform: translateY(-20px); }
                100% { transform: translateY(0px); }
            }
        </style>
    </defs>

    <!-- Fondo de gradiente -->
    <rect width="1024" height="1024" fill="url(#illustration-gradient)" />

    <!-- Personajes Centrales -->
    <g transform="translate(256, 300) scale(1.2)">
        <!-- Persona Izquierda -->
        <path d="M256.5,208.5 C251.5,207.5 243.5,202.5 243.5,193.5 C243.5,184.5 251.5,178.5 256.5,178.5 C261.5,178.5 269.5,184.5 269.5,193.5 C269.5,202.5 261.5,207.5 256.5,208.5 Z" fill="#FFFFFF" opacity="0.1"/>
        <path d="M260,194 C260,196.209 258.209,198 256,198 C253.791,198 252,196.209 252,194 C252,191.791 253.791,190 256,190 C258.209,190 260,191.791 260,194 Z" fill="#FFFFFF"/>
        <path d="M256,211 C248.268,211 242,217.268 242,225 L242,243 C242,251.268 248.268,257.5 256,257.5 C263.732,257.5 270,251.268 270,243 L270,225 C270,217.268 263.732,211 256,211 Z" fill="#FFFFFF" opacity="0.9"/>
        
        <!-- Persona Derecha -->
        <path d="M370.5,232.5 C365.5,231.5 357.5,226.5 357.5,217.5 C357.5,208.5 365.5,202.5 370.5,202.5 C375.5,202.5 383.5,208.5 383.5,217.5 C383.5,226.5 375.5,231.5 370.5,232.5 Z" fill="#FFFFFF" opacity="0.1"/>
        <path d="M374,218 C374,220.209 372.209,222 370,222 C367.791,222 366,220.209 366,218 C366,215.791 367.791,214 370,214 C372.209,214 374,215.791 374,218 Z" fill="#FFFFFF"/>
        <path d="M370,235 C362.268,235 356,241.268 356,249 L356,267 C356,275.268 362.268,281.5 370,281.5 C377.732,281.5 384,275.268 384,267 L384,249 C384,241.268 377.732,235 370,235 Z" fill="#FFFFFF" opacity="0.9"/>

        <!-- Laptop/Mesa -->
        <path d="M280,265 H340 L345,285 H275 Z" fill="#FFFFFF" opacity="0.9"/>
        <rect x="270" y="285" width="80" height="5" rx="2" fill="#FFFFFF" opacity="0.8"/>
    </g>

    <!-- Iconos de Aprendizaje Flotantes -->
    <!-- Bombilla (Idea) -->
    <g class="icon-float" style="animation-delay: -1s;" transform="translate(150, 200) scale(0.6)">
        <path d="M12 2C8.686 2 6 4.686 6 8c0 2.454 1.425 4.53 3.375 5.531V16h-1.5a1 1 0 0 0 0 2h6a1 1 0 0 0 0-2h-1.5v-2.469C16.575 12.53 18 10.454 18 8c0-3.314-2.686-6-6-6zm0 2c2.21 0 4 1.79 4 4s-1.79 4-4 4-4-1.79-4-4 1.79-4 4-4zM9 19v1a1 1 0 0 0 1 1h4a1 1 0 0 0 1-1v-1z" fill="#FFFFFF" opacity="0.6"/>
    </g>

    <!-- Libro (Conocimiento) -->
    <g class="icon-float" style="animation-delay: -3s;" transform="translate(750, 350) scale(0.6)">
        <path d="M4 2.5v12.5a1 1 0 0 0 1 1h8a1 1 0 0 0 1-1V2.5a1 1 0 0 0-1-1H5a1 1 0 0 0-1 1zm2 0h2v12.5H6v-12.5zM16.5 1h-2.25a.25.25 0 0 0-.25.25v13.5a.25.25 0 0 0 .25.25H16.5a1 1 0 0 0 1-1V2a1 1 0 0 0-1-1z" fill="#FFFFFF" opacity="0.6" transform="rotate(15)"/>
    </g>

    <!-- Engranaje (Técnica) -->
    <g class="icon-float" style="animation-delay: -5s;" transform="translate(200, 600) scale(0.6)">
        <path d="M12 2c-1.39 0-2.7.54-3.66 1.5l-.71-.7a1 1 0 0 0-1.42 1.4l.7.7A5.95 5.95 0 0 0 5.4 8.5L2.6 9.84a1 1 0 0 0-.54 1.5l1.63 2.82a1 1 0 0 0 1.3.5l2.78-1.38c.1.33.24.66.39.97L7 16.9a1 1 0 0 0 .14 1.1l1.4 1.4a1 1 0 0 0 1.4 0l1.4-1.4a1 1 0 0 0 .14-1.1l-1.1-2.67c.33-.15.66-.3.97-.4l2.77 1.38a1 1 0 0 0 1.3-.5l1.63-2.83a1 1 0 0 0-.54-1.5L18.6 8.5c.2-.6.2-1.2 0-1.8l2.82-1.34a1 1 0 0 0 .54-1.5L20.32 1.1a1 1 0 0 0-1.5-.5L16.15 3a5.95 5.95 0 0 0-3.5-1zm0 2a4 4 0 1 1 0 8 4 4 0 0 1 0-8z" fill="#FFFFFF" opacity="0.6"/>
    </g>
    
    <!-- Pincel (Creatividad) -->
    <g class="icon-float" style="animation-delay: 0s;" transform="translate(800, 700) scale(0.6)">
        <path d="M7 2a1 1 0 0 0-1 1v2c0 .53.2 1.02.56 1.41L12 12l-2.5 2.5a1 1 0 0 0 0 1.41l3 3a1 1 0 0 0 1.41 0L16.5 16.5 22 11c.4-.4.59-.9.59-1.4V8a1 1 0 0 0-1-1h-1.5a1 1 0 0 0-1 1v.5L14 12l-5-5 .5-.5H10a1 1 0 0 0 1-1V2a1 1 0 0 0-1-1H7z" fill="#FFFFFF" opacity="0.6" transform="rotate(-30)"/>
    </g>
</svg>
